PathFileType  4	(X/Y/Z) C:\Users\antoi\Documents\MyRepositories\mobilecap\ResultsAnalysis
DataRate	CameraRate	NumFrames	NumMarkers	Units	OrigDataRate	OrigDataStartFrame	OrigNumFrames
100.0	100.0	4	51	mm	100.0	193	257
Frame#	Time	r_knee			r_shank_antsup			r_ankle			r_calc			r_5meta			r_toe			L_knee			L_shank_antsup			L_ankle			L_calc			L_5meta			L_toe			r_sh2			r_sh3			r_sh4			L_sh2			L_sh3			r_thigh1			r_thigh2			r_thigh3			r_thigh4			r_thigh5			L_thigh1			L_thigh2			L_thigh3			L_thigh4			r.ASIS			r.PSIS			L.ASIS			L.PSIS			C7			R_Shoulder			L_Shoulder			R_Sternum			L_Sternum			R_humerus			R_elbow_med			R_elbow_lat			R_forearm			R_wrist_radius			R_wrist_ulna			L_humerus			L_elbow_med			L_elbow_lat			L_forearm			L_wrist_radius			L_wrist_ulna			R_HJC			L_HJC			R_HJC_reg			L_HJC_reg			
		X1	Y1	Z1	X2	Y2	Z2	X3	Y3	Z3	X4	Y4	Z4	X5	Y5	Z5	X6	Y6	Z6	X7	Y7	Z7	X8	Y8	Z8	X9	Y9	Z9	X10	Y10	Z10	X11	Y11	Z11	X12	Y12	Z12	X13	Y13	Z13	X14	Y14	Z14	X15	Y15	Z15	X16	Y16	Z16	X17	Y17	Z17	X18	Y18	Z18	X19	Y19	Z19	X20	Y20	Z20	X21	Y21	Z21	X22	Y22	Z22	X23	Y23	Z23	X24	Y24	Z24	X25	Y25	Z25	X26	Y26	Z26	X27	Y27	Z27	X28	Y28	Z28	X29	Y29	Z29	X30	Y30	Z30	X31	Y31	Z31	X32	Y32	Z32	X33	Y33	Z33	X34	Y34	Z34	X35	Y35	Z35	X36	Y36	Z36	X37	Y37	Z37	X38	Y38	Z38	X39	Y39	Z39	X40	Y40	Z40	X41	Y41	Z41	X42	Y42	Z42	X43	Y43	Z43	X44	Y44	Z44	X45	Y45	Z45	X46	Y46	Z46	X47	Y47	Z47	X48	Y48	Z48	X49	Y49	Z49	X50	Y50	Z50	X51	Y51	Z51	

193	1.92000000	-191.94260	653.40231	-305.78318	-180.15248	505.51855	-282.31758	-285.58753	149.20767	-254.73294	-336.19139	146.44096	-324.81655	-182.99673	41.23613	-219.63131	-130.49342	60.78598	-260.84848	-206.05871	641.12377	-802.37732	-183.50049	437.69849	-817.67891	-314.24822	157.35072	-851.40588	-367.42581	133.96689	-785.90827	-207.75647	38.68803	-906.35809	-151.53856	61.07337	-855.94967	-194.39555	393.07488	-272.28144	-251.56292	515.07898	-259.44169	-270.24833	405.31238	-243.07509	-255.25536	463.26955	-861.05193	-282.95835	347.79137	-858.12854	-223.43995	954.64452	-326.95337	-181.62764	849.46152	-305.74903	-234.55124	806.46166	-302.65533	-318.67779	907.65735	-370.85909	-280.35104	800.69109	-335.14661	-179.29920	946.47866	-769.88595	-159.95432	813.14157	-784.81391	-289.45296	933.21384	-773.09622	-266.39183	800.91026	-802.52726	-191.33757	1201.27294	-418.45405	-361.98837	1244.99009	-522.71694	-178.42576	1185.58886	-691.41871	-356.52976	1244.70075	-613.86217	-161.81341	1710.49083	-572.38010	-78.67601	1734.05178	-460.75813	-80.87806	1735.70300	-671.41619	-27.98860	1642.95042	-518.88714	-14.65400	1635.34712	-586.76940	15.41395	1750.00719	-249.57530	52.04294	1682.43631	-98.42018	9.69155	1761.69161	-108.84231	127.76720	1802.44675	-278.88466	172.04861	1812.86355	-350.56845	197.24498	1824.37651	-327.46577	77.78766	1726.24340	-871.11384	91.18543	1642.75621	-989.06405	86.29358	1730.13591	-986.12961	200.46063	1776.75083	-824.68636	227.80772	1782.01954	-765.97964	252.40378	1792.06974	-786.92324	-274.93715	1112.34029	-457.86758	-268.90545	1105.96145	-655.14811	-265.14860	1116.45753	-461.70119	-254.34438	1115.88856	-642.03168	
194	1.93000000	-217.59250	672.21249	-309.03844	-198.67794	526.47961	-281.84127	-275.44949	164.87220	-246.18087	-325.11515	168.49236	-317.63832	-179.50465	46.76566	-218.12330	-126.23342	63.76130	-258.56910	-229.78061	661.84839	-801.13150	-196.31681	460.83627	-819.38077	-305.07526	171.59436	-855.03594	-356.09983	155.12709	-788.43626	-205.56534	42.35948	-906.71876	-147.57093	61.79462	-857.20657	-205.16028	413.68340	-268.85312	-271.05293	531.37333	-261.02282	-282.06556	420.92656	-241.38092	-269.82440	481.68959	-862.11080	-289.23266	364.30995	-859.82457	-223.79839	976.61543	-328.50368	-190.06287	868.62741	-305.32140	-246.03626	829.84319	-303.12876	-321.53372	936.49069	-372.78110	-291.54481	827.09590	-336.62692	-178.57164	965.87695	-769.85214	-169.30638	831.76258	-786.08265	-289.47115	961.02817	-771.91953	-276.82264	827.10567	-800.68974	-176.11410	1231.09147	-419.59980	-347.39639	1268.01080	-522.16702	-163.69570	1215.04741	-689.02617	-342.23540	1267.79347	-613.44154	-166.87107	1740.53229	-571.74439	-85.18335	1766.04150	-461.17166	-87.98295	1767.67608	-670.78135	-31.67773	1676.66460	-517.50173	-18.10284	1668.43492	-586.01545	-3.87304	1782.11550	-241.09838	18.09513	1714.22178	-88.43345	-20.35488	1794.82270	-102.82491	107.59791	1826.07198	-266.90739	156.37528	1831.74114	-339.24191	179.78529	1843.76240	-313.81558	58.09278	1757.23777	-882.26396	58.24050	1674.78838	-1002.79146	58.98694	1761.33505	-996.86579	183.36408	1795.36668	-840.42894	213.94517	1796.44581	-782.90526	237.73127	1806.73591	-804.09862	-256.26820	1139.06221	-456.89107	-250.34487	1132.13096	-654.15704	-246.37286	1144.28197	-461.84195	-236.29896	1143.85231	-639.88083	
195	1.94000000	-242.60739	693.39256	-314.29447	-216.18562	550.84613	-283.43121	-264.11895	187.44175	-237.96207	-313.94271	194.92720	-309.75867	-174.04288	60.29739	-217.07761	-119.51944	76.24799	-255.78902	-253.80959	684.76089	-797.90316	-208.89231	488.20650	-820.37602	-291.64915	191.51930	-859.47426	-340.56076	182.12198	-790.67347	-202.72625	50.90372	-905.88548	-141.93901	67.29808	-859.21573	-214.58267	438.66652	-267.08300	-289.13426	550.61528	-265.02474	-292.15918	440.09557	-242.12380	-284.85378	503.83931	-860.98227	-294.80049	385.04261	-860.46861	-222.30481	998.03939	-330.35774	-197.62761	887.28199	-306.79365	-256.68013	853.11803	-306.12111	-322.88305	966.31889	-374.48036	-301.99226	854.44033	-339.65860	-176.83536	984.49259	-768.89247	-178.62305	850.43756	-785.51304	-287.70093	988.73466	-770.87274	-286.45467	853.70776	-797.05505	-161.18020	1259.40797	-421.28881	-332.43103	1290.87246	-521.46467	-149.29394	1243.84785	-685.74242	-327.16002	1290.77441	-612.51180	-171.94401	1767.92516	-570.62415	-91.82898	1795.14117	-461.73355	-95.25479	1796.61130	-670.78378	-34.77957	1707.72697	-516.89269	-22.18161	1698.38204	-585.54853	-23.71961	1811.52043	-233.50233	-17.24734	1743.19981	-80.98246	-50.05918	1825.56918	-98.00803	88.65678	1846.58156	-254.38368	142.72332	1847.13258	-329.34695	163.31094	1859.81830	-298.18499	37.95028	1784.82343	-891.99728	25.39081	1703.41555	-1013.43886	31.78024	1788.93192	-1005.81818	166.20079	1810.69016	-856.08854	199.95180	1807.92647	-800.45207	223.16260	1818.09720	-821.17733	-238.11556	1164.97861	-455.99091	-232.22626	1158.03991	-653.25740	-228.65141	1172.00438	-462.70556	-218.53858	1171.80858	-637.42780	
196	1.95000000	-260.44411	716.30294	-318.73248	-229.61223	576.72239	-286.46228	-257.32646	212.42374	-233.03862	-307.72565	220.30408	-304.21612	-167.63091	81.67132	-217.04226	-111.82462	100.00538	-253.41151	-272.68272	708.40709	-794.06596	-219.25403	517.32180	-821.06405	-279.88857	215.88147	-862.98276	-324.94527	212.73562	-791.10365	-201.62282	65.24702	-902.90977	-136.89712	80.66182	-862.32080	-221.78018	465.30917	-267.42602	-302.60297	572.66722	-269.49552	-299.41388	462.26275	-244.08242	-298.21062	528.35524	-857.33497	-299.51000	408.95082	-860.04820	-219.17106	1017.89493	-331.97710	-202.46913	905.81369	-310.47253	-264.01944	875.32278	-311.28723	-321.84781	994.66537	-376.46497	-309.26985	880.79699	-344.00202	-174.92523	1001.79055	-767.23609	-187.35003	868.44284	-782.55721	-285.15585	1014.20136	-769.33077	-294.50442	878.88234	-792.39183	-147.30354	1285.24783	-423.03090	-318.18555	1313.99917	-520.65957	-136.15896	1270.14772	-683.20538	-312.36418	1313.64203	-611.20955	-176.77640	1792.77533	-569.98884	-98.12025	1820.97040	-462.31517	-102.09680	1822.16144	-671.23722	-38.24267	1735.07913	-516.69145	-25.57758	1725.20337	-583.79903	-44.05413	1837.73915	-228.24257	-53.04806	1769.44311	-75.79081	-79.59765	1853.37117	-95.46023	70.71938	1863.75552	-241.58868	129.50794	1859.40793	-317.40824	148.09634	1873.40834	-280.05512	17.98725	1808.37277	-900.55601	-6.49344	1728.35552	-1021.59556	5.14701	1813.00602	-1013.33785	149.26594	1822.95750	-871.84979	185.58787	1816.75814	-818.88876	208.58561	1826.48251	-839.21463	-222.19701	1189.61274	-455.25460	-216.68952	1182.71031	-652.53198	-213.93527	1198.61373	-463.87612	-202.88905	1197.94270	-635.67837	
